<svg width="425" height="373" viewBox="0 0 425 373" fill="none" xmlns="http://www.w3.org/2000/svg">
<path fill-rule="evenodd" clip-rule="evenodd" d="M55.3079 243.101C93.2469 332.538 258.767 385.017 301.961 312.52C345.155 240.023 235.862 226.867 197.226 151.951C158.591 77.0349 128.569 30.2769 72.7444 47.3443C16.9196 64.4116 17.3688 153.664 55.3079 243.101Z" fill="#6259FF"/>
<path fill-rule="evenodd" clip-rule="evenodd" d="M323.095 301.153C383.774 272.875 415.934 157.627 364.97 129.625C314.005 101.622 307.573 177.204 256.911 205.612C206.249 234.02 174.771 255.819 187.867 293.853C200.963 331.887 262.416 329.431 323.095 301.153Z" fill="#F9818E"/>
<path d="M255.305 169.097L265.912 158.291" stroke="white" stroke-width="5" stroke-linecap="round" stroke-linejoin="bevel"/>
<path d="M299.461 174.581L286.955 164.078" stroke="white" stroke-width="5" stroke-linecap="round" stroke-linejoin="bevel"/>
<path d="M277.56 188.991L270.652 203.789" stroke="white" stroke-width="5" stroke-linecap="round" stroke-linejoin="bevel"/>
<path d="M90.3047 246.891C127.308 246.891 157.305 216.894 157.305 179.891C157.305 142.888 127.308 112.891 90.3047 112.891C53.3016 112.891 23.3047 142.888 23.3047 179.891C23.3047 216.894 53.3016 246.891 90.3047 246.891Z" fill="#FFAF7E"/>
</svg>
